<svg xmlns="http://www.w3.org/2000/svg" width="23.474" height="23.474" viewBox="0 0 23.474 23.474"><defs><style>.a{fill:#cc2558;}.b{fill:none;stroke:#cc2558;stroke-width:1.3px;}</style></defs><path class="a" d="M0,241H2.8v1.376H0Zm0,0" transform="translate(0 -229.95)"/><path class="a" d="M451,241h2.8v1.376H451Zm0,0" transform="translate(-430.322 -229.95)"/><path class="a" d="M383.277,67.035l1.945-1.945.973.972-1.945,1.945Zm0,0" transform="translate(-365.705 -62.106)"/><path class="a" d="M67.031,68l-1.945-1.945.972-.972L68,67.031Zm0,0" transform="translate(-62.102 -62.102)"/><path class="a" d="M241,0h1.376V2.8H241Zm0,0" transform="translate(-229.95)"/><path class="a" d="M92.375,452A1.375,1.375,0,0,0,91,453.375v1.375h15.13v-1.375A1.375,1.375,0,0,0,104.755,452Zm0,0" transform="translate(-86.828 -431.276)"/><path class="b" d="M121,127.19V134.8h12.379V127.19a6.19,6.19,0,0,0-12.379,0Zm5.5-2.063h1.375v4.126H126.5Zm0,5.5h1.375V132H126.5Zm0,0" transform="translate(-115.452 -115.452)"/></svg>