<svg xmlns="http://www.w3.org/2000/svg" width="9" height="58.001" viewBox="0 0 9 58.001"><defs><style>.a{fill:#559a4c;}.b,.c{stroke:none;}.c{fill:#559a4c;}</style></defs><g class="a" transform="translate(-8 -1)"><path class="b" d="M 16.50010108947754 58.50040054321289 L 14.00040149688721 58.50040054321289 C 10.96752071380615 58.50040054321289 8.500101089477539 56.03298187255859 8.500101089477539 53.00009918212891 L 8.500101089477539 7.000200748443604 C 8.500101089477539 3.967320680618286 10.96752071380615 1.499900698661804 14.00040149688721 1.499900698661804 L 16.50010108947754 1.499900698661804 L 16.50010108947754 58.50040054321289 Z"/><path class="c" d="M 16.00010108947754 58.00040054321289 L 16.00010108947754 1.999900698661804 L 14.00040149688721 1.999900698661804 C 11.24323081970215 1.999900698661804 9.000101089477539 4.243030548095703 9.000101089477539 7.000200748443604 L 9.000101089477539 53.00009918212891 C 9.000101089477539 55.75727081298828 11.24323081970215 58.00040054321289 14.00040149688721 58.00040054321289 L 16.00010108947754 58.00040054321289 M 17.00010108947754 59.00040054321289 L 14.00040149688721 59.00040054321289 C 10.68660068511963 59.00040054321289 8.000101089477539 56.31389999389648 8.000101089477539 53.00009918212891 L 8.000101089477539 7.000200748443604 C 8.000101089477539 3.686400651931763 10.68660068511963 0.9999006986618042 14.00040149688721 0.9999006986618042 L 17.00010108947754 0.9999006986618042 L 17.00010108947754 59.00040054321289 Z"/></g></svg>